<svg width="32" height="32" viewBox="0 0 32 32" fill="none" xmlns="http://www.w3.org/2000/svg">
<rect width="32" height="32" rx="16" fill="#333333"/>
<path fill-rule="evenodd" clip-rule="evenodd" d="M26.8575 10.9618C25.8995 9.48559 23.9876 8.95821 22.4075 9.7334C20.7203 10.5912 20.0473 12.653 20.9026 14.34C21.3912 15.3016 22.3036 15.9783 23.3655 16.1657C23.2362 20.2323 19.8343 23.4262 15.7658 23.297C11.8149 23.172 8.66625 19.9516 8.63022 15.9984C8.62386 12.9527 10.5166 10.2269 13.3738 9.17001C13.9228 8.97198 14.2407 8.39695 14.1136 7.82615L14.1051 7.7912C13.9652 7.16639 14.3573 6.54794 14.9805 6.4071C15.0314 6.39651 15.0833 6.38803 15.1352 6.3838C15.4214 6.35732 15.7107 6.34356 16 6.34356C16.3582 6.34356 16.7175 6.36474 17.0725 6.40286C17.7169 6.47381 18.2976 6.00785 18.3665 5.36504C18.3697 5.34386 18.3718 5.32057 18.3729 5.29939C18.3898 4.66081 17.9044 4.11967 17.2686 4.06672C16.8468 4.02118 16.4229 4 16 4C9.37313 4 4 9.37334 4 16.0005C4 22.6288 9.37313 28 16 28C22.6279 28 28 22.6288 28 16.0005C28 14.8272 27.7637 12.2983 26.8575 10.9618Z" fill="white"/>
</svg>
