<svg width="217" height="23" viewBox="0 0 217 23" fill="none" xmlns="http://www.w3.org/2000/svg">
<path fill-rule="evenodd" clip-rule="evenodd" d="M35.5663 14.245C35.7152 14.385 35.7966 14.591 35.7882 14.805C35.7882 15.408 35.4645 15.709 34.8207 15.709H29.2763C28.8508 15.737 28.4826 15.386 28.4576 14.925C28.4558 14.897 28.4558 14.868 28.4567 14.839C28.4567 14.529 28.5751 14.235 28.7832 14.024L33.3601 8.7H29.8174C29.5861 8.717 29.3558 8.645 29.1699 8.495C29.0182 8.35 28.9368 8.138 28.9479 7.919C28.9479 7.328 29.2698 7.032 29.9154 7.032H35.2138C35.4377 7.02 35.6569 7.114 35.8123 7.289C35.9566 7.454 36.0362 7.674 36.0334 7.902C36.0278 8.214 35.9094 8.513 35.7059 8.735L31.1457 14.041H34.9178C35.1491 14.024 35.3803 14.096 35.5663 14.245ZM38.4939 10.58H42.2337C42.2827 9.995 42.131 9.41 41.8072 8.94C41.4927 8.557 41.033 8.352 40.5603 8.381C39.4013 8.381 38.7131 9.114 38.4939 10.581V10.58ZM43.7849 11.565C43.6554 11.702 43.4796 11.777 43.3002 11.769H38.4291C38.4153 12.425 38.6345 13.06 39.0424 13.544C39.4799 13.97 40.0562 14.187 40.6427 14.148C40.9942 14.153 41.3457 14.102 41.6842 13.998C42.0098 13.889 42.3215 13.738 42.6111 13.544C42.7359 13.466 42.8765 13.424 43.0208 13.42C43.1901 13.412 43.3538 13.495 43.4556 13.642C43.562 13.799 43.6175 13.989 43.611 14.183C43.6128 14.523 43.4593 14.842 43.2012 15.035C42.8451 15.303 42.4483 15.502 42.0283 15.621C41.5344 15.775 41.0247 15.853 40.5113 15.851C39.7667 15.87 39.0295 15.69 38.3625 15.328C37.765 14.996 37.272 14.479 36.9436 13.846C36.5995 13.161 36.4265 12.389 36.4441 11.609C36.4302 10.753 36.605 9.905 36.9519 9.135C37.2692 8.432 37.7641 7.842 38.3792 7.431C39.0119 7.017 39.7389 6.804 40.4789 6.818C41.4446 6.754 42.3881 7.149 43.0625 7.901C43.7146 8.769 44.0402 9.871 43.9727 10.989C43.9856 11.201 43.9153 11.409 43.784 11.565H43.7849ZM52.2255 7.608C52.7296 8.258 52.9794 9.096 52.9239 9.942C52.9239 10.166 52.9174 10.338 52.9054 10.457L52.5779 14.751C52.5705 15.049 52.4521 15.33 52.2496 15.531C52.0414 15.726 51.7704 15.827 51.4957 15.816C51.2247 15.834 50.9583 15.731 50.7566 15.532C50.5762 15.322 50.4911 15.035 50.5281 14.751L50.8565 10.546C50.9435 9.232 50.4625 8.576 49.4135 8.576C48.8863 8.544 48.3729 8.757 48.002 9.161C47.6384 9.616 47.4303 10.192 47.4118 10.794L47.1001 14.751C47.0927 15.049 46.9743 15.33 46.7717 15.531C46.5636 15.726 46.2926 15.827 46.0178 15.816C45.7496 15.835 45.4832 15.732 45.2871 15.532C45.1113 15.319 45.0244 15.035 45.0494 14.751L45.5748 7.865C45.5757 7.58 45.6969 7.309 45.9022 7.129C46.1214 6.942 46.3952 6.845 46.6737 6.854C46.928 6.838 47.1759 6.934 47.3628 7.12C47.5302 7.31 47.6033 7.573 47.5598 7.83L47.5422 8.167C47.8216 7.737 48.1999 7.394 48.6421 7.173C49.124 6.932 49.6512 6.81 50.184 6.819C50.937 6.76 51.6779 7.047 52.2255 7.609V7.608ZM19.9504 6.574C19.1142 5.18 17.4455 4.682 16.0663 5.414C14.5937 6.224 14.0064 8.171 14.7528 9.764C15.1793 10.672 15.9757 11.311 16.9025 11.488C16.7897 15.328 13.8204 18.344 10.2694 18.222C6.82095 18.104 4.07278 15.063 4.04133 11.33C4.03578 8.454 5.68783 5.88 8.18163 4.882C8.66078 4.695 8.93828 4.152 8.82728 3.613L8.81988 3.58C8.69778 2.99 9.04003 2.406 9.58393 2.273C9.62833 2.263 9.67365 2.255 9.71898 2.251C9.96873 2.226 10.2213 2.213 10.4738 2.213C10.7864 2.213 11.1 2.233 11.4099 2.269C11.9723 2.336 12.4792 1.896 12.5393 1.289C12.5421 1.269 12.5439 1.247 12.5449 1.227C12.5597 0.624 12.136 0.113 11.581 0.063C11.2129 0.02 10.8429 0 10.4738 0C4.68975 0 0 5.074 0 11.332C0 17.591 4.68975 22.663 10.4738 22.663C16.2587 22.663 20.9476 17.591 20.9476 11.332C20.9476 10.224 20.7413 7.836 19.9504 6.574Z" fill="white"/>
<path fill-rule="evenodd" clip-rule="evenodd" d="M14.4244 0.859863C15.0229 0.859863 15.5095 1.38586 15.5095 2.03386C15.5095 2.68186 15.0229 3.20786 14.4244 3.20786C13.825 3.20786 13.3394 2.68186 13.3394 2.03386C13.3394 1.38586 13.825 0.859863 14.4244 0.859863ZM61.1314 10.2589C61.7299 10.2589 62.2164 10.7839 62.2164 11.4329C62.2164 12.0809 61.7299 12.6069 61.1314 12.6069C60.532 12.6069 60.0455 12.0809 60.0455 11.4329C60.0455 10.7829 60.532 10.2589 61.1314 10.2589ZM74.8344 7.49986C74.9417 7.62686 74.9962 7.78486 74.9962 7.97286C74.9962 8.21786 74.913 8.43286 74.7492 8.62186L70.1085 14.1249H74.074C74.2794 14.1249 74.4375 14.1809 74.5504 14.2919C74.6623 14.4029 74.7197 14.5519 74.7197 14.7409C74.7197 14.9619 74.6577 15.1309 74.5347 15.2479C74.4126 15.3639 74.2322 15.4219 73.9972 15.4219H68.6498C68.4528 15.4219 68.302 15.3619 68.1956 15.2389C68.0883 15.1189 68.0347 14.9619 68.0347 14.7739C68.0347 14.5529 68.1161 14.3479 68.2798 14.1589L72.9372 8.60586H69.2326C69.0272 8.60586 68.869 8.54986 68.7562 8.43886C68.6452 8.32786 68.5878 8.17886 68.5878 7.98986C68.5878 7.53486 68.8237 7.30886 69.2945 7.30886H74.382C74.5763 7.30886 74.7271 7.37186 74.8353 7.49886L74.8344 7.49986ZM78.0413 8.93786C77.6713 9.33786 77.4354 9.91786 77.3337 10.6839H81.2983C81.3195 9.91886 81.1724 9.33686 80.8607 8.93786C80.5481 8.53786 80.105 8.33986 79.5315 8.33986C78.9062 8.33986 78.4095 8.53886 78.0413 8.93786ZM82.4906 11.4729C82.3814 11.5899 82.2371 11.6479 82.0512 11.6479H77.2717C77.2828 12.4679 77.4771 13.1029 77.8563 13.5529C78.2356 14.0009 78.7832 14.2259 79.5001 14.2259C80.2169 14.2259 80.8829 14.0039 81.4981 13.5599C81.6109 13.4819 81.7238 13.4439 81.8366 13.4439C81.98 13.4439 82.0975 13.5049 82.189 13.6269C82.2815 13.7489 82.3278 13.8919 82.3278 14.0589C82.3278 14.3149 82.226 14.5299 82.0216 14.7079C81.7441 14.9509 81.363 15.1509 80.8764 15.3059C80.389 15.4619 79.9006 15.5389 79.4085 15.5389C78.6703 15.5389 78.0247 15.3779 77.4725 15.0569C76.9174 14.7349 76.492 14.2749 76.1885 13.6769C75.8861 13.0769 75.7353 12.3859 75.7353 11.5989C75.7353 10.7219 75.8907 9.94386 76.2043 9.26186C76.516 8.57986 76.9535 8.05186 77.5178 7.67486C78.0811 7.29786 78.7323 7.10786 79.4695 7.10786C80.4944 7.10786 81.2807 7.43786 81.8283 8.09786C82.3759 8.75786 82.6515 9.71386 82.6515 10.9659C82.6515 11.1879 82.5979 11.3569 82.4906 11.4729ZM89.0664 7.27486C89.1848 7.38586 89.244 7.54686 89.244 7.75686C89.244 8.26686 88.9878 8.54386 88.4753 8.58786L88.0609 8.63786C87.3533 8.71586 86.8288 8.93786 86.4847 9.30286C86.1425 9.66886 85.9455 10.2079 85.8927 10.9169L85.6014 14.7069C85.581 14.9839 85.4941 15.1869 85.3405 15.3139C85.186 15.4419 84.9964 15.5059 84.7716 15.5059C84.5459 15.5059 84.3646 15.4389 84.2259 15.3059C84.0881 15.1729 84.0288 14.9739 84.0501 14.7069L84.5561 7.90686C84.5663 7.66286 84.6542 7.47486 84.8179 7.34086C84.9816 7.20886 85.1712 7.14286 85.3858 7.14286C85.5912 7.14286 85.754 7.20586 85.8779 7.33286C86.001 7.46086 86.0574 7.64586 86.0472 7.88986L86.001 8.57286C86.5125 7.71886 87.3228 7.24786 88.4291 7.15886L88.5993 7.14286C88.7935 7.12086 88.9499 7.16486 89.0664 7.27486ZM94.7718 13.3439C95.1511 12.7679 95.3425 11.9929 95.3425 11.0159C95.3425 10.1849 95.164 9.54986 94.8116 9.11186C94.4582 8.67486 93.9523 8.45586 93.2983 8.45586C92.5796 8.45586 92.031 8.74386 91.6518 9.31986C91.2744 9.89686 91.0848 10.6729 91.0848 11.6479C91.0848 12.4909 91.2614 13.1279 91.6139 13.5609C91.9681 13.9919 92.4769 14.2089 93.1429 14.2089C93.8514 14.2089 94.3935 13.9199 94.7718 13.3439ZM91.2216 15.0569C90.6796 14.7359 90.2597 14.2759 89.9627 13.6769C89.6649 13.0769 89.5169 12.3859 89.5169 11.5979C89.5169 10.6879 89.6732 9.89786 89.9859 9.22086C90.2976 8.54486 90.7388 8.02386 91.3068 7.65786C91.8756 7.29186 92.5342 7.10886 93.2816 7.10886C94.0189 7.10886 94.6599 7.27186 95.2019 7.59886C95.7458 7.92686 96.1658 8.38686 96.4627 8.97886C96.7606 9.57186 96.9086 10.2689 96.9086 11.0659C96.9086 11.9749 96.7532 12.7659 96.4405 13.4359C96.126 14.1059 95.6866 14.6249 95.1178 14.9899C94.5498 15.3559 93.8875 15.5389 93.129 15.5389C92.401 15.5389 91.7655 15.3779 91.2216 15.0569ZM104.546 8.93786C104.178 9.33786 103.942 9.91786 103.84 10.6839H107.805C107.825 9.91886 107.679 9.33686 107.367 8.93786C107.055 8.53786 106.611 8.33986 106.037 8.33986C105.412 8.33986 104.915 8.53886 104.546 8.93786ZM108.996 11.4729C108.888 11.5899 108.742 11.6479 108.557 11.6479H103.779C103.789 12.4679 103.983 13.1029 104.363 13.5529C104.741 14.0009 105.29 14.2259 106.008 14.2259C106.725 14.2259 107.389 14.0039 108.004 13.5599C108.117 13.4819 108.231 13.4439 108.342 13.4439C108.486 13.4439 108.603 13.5049 108.697 13.6269C108.788 13.7489 108.834 13.8919 108.834 14.0589C108.834 14.3149 108.732 14.5299 108.527 14.7079C108.25 14.9509 107.869 15.1509 107.382 15.3059C106.897 15.4619 106.406 15.5389 105.914 15.5389C105.176 15.5389 104.531 15.3779 103.978 15.0569C103.425 14.7349 102.996 14.2749 102.695 13.6769C102.393 13.0769 102.242 12.3859 102.242 11.5989C102.242 10.7219 102.398 9.94386 102.71 9.26186C103.024 8.57986 103.461 8.05186 104.024 7.67486C104.588 7.29786 105.238 7.10786 105.975 7.10786C106.999 7.10786 107.787 7.43786 108.335 8.09786C108.883 8.75786 109.156 9.71386 109.156 10.9659C109.156 11.1879 109.104 11.3569 108.996 11.4729ZM113.596 5.51286C113.334 5.82286 113.177 6.28286 113.127 6.89286L113.095 7.30886H114.618C114.823 7.30886 114.978 7.36386 115.086 7.47486C115.193 7.58486 115.248 7.73486 115.248 7.92286C115.248 8.37786 115.012 8.60486 114.541 8.60486H113.004L112.558 14.7069C112.548 14.9739 112.463 15.1729 112.305 15.3069C112.145 15.4389 111.959 15.5069 111.744 15.5069C111.528 15.5069 111.35 15.4389 111.205 15.3069C111.062 15.1729 110.995 14.9739 111.006 14.7069L111.451 8.60486H110.545C110.34 8.60486 110.181 8.54986 110.069 8.43886C109.955 8.32786 109.899 8.17886 109.899 7.98986C109.899 7.76886 109.96 7.59986 110.084 7.48286C110.206 7.36586 110.386 7.30886 110.621 7.30886H111.545L111.56 7.09186C111.723 4.96486 112.783 3.83386 114.74 3.70086L115.064 3.68386C115.606 3.65086 115.878 3.84486 115.878 4.26586C115.878 4.47586 115.822 4.63786 115.708 4.74786C115.595 4.85886 115.432 4.92486 115.218 4.94686L114.802 4.97986C114.259 5.02486 113.856 5.20286 113.596 5.51286ZM119.529 5.51286C119.268 5.82286 119.111 6.28286 119.06 6.89286L119.029 7.30886H120.551C120.757 7.30886 120.912 7.36386 121.02 7.47486C121.127 7.58486 121.181 7.73486 121.181 7.92286C121.181 8.37786 120.945 8.60486 120.475 8.60486H118.937L118.492 14.7069C118.481 14.9739 118.397 15.1729 118.238 15.3069C118.079 15.4389 117.892 15.5069 117.677 15.5069C117.462 15.5069 117.283 15.4389 117.139 15.3069C116.996 15.1729 116.929 14.9739 116.939 14.7069L117.385 8.60486H116.479C116.274 8.60486 116.114 8.54986 116.002 8.43886C115.889 8.32786 115.832 8.17886 115.832 7.98986C115.832 7.76886 115.894 7.59986 116.017 7.48286C116.139 7.36586 116.32 7.30886 116.556 7.30886H117.478L117.494 7.09186C117.657 4.96486 118.717 3.83386 120.674 3.70086L120.996 3.68386C121.539 3.65086 121.81 3.84486 121.81 4.26586C121.81 4.47586 121.755 4.63786 121.642 4.74786C121.528 4.85886 121.365 4.92486 121.151 4.94686L120.735 4.97986C120.193 5.02486 119.791 5.20286 119.529 5.51286ZM126.79 13.3439C127.169 12.7679 127.359 11.9929 127.359 11.0159C127.359 10.1849 127.183 9.54986 126.829 9.11186C126.475 8.67486 125.97 8.45586 125.315 8.45586C124.597 8.45586 124.05 8.74386 123.67 9.31986C123.29 9.89686 123.103 10.6729 123.103 11.6479C123.103 12.4909 123.278 13.1279 123.632 13.5609C123.986 13.9919 124.495 14.2089 125.161 14.2089C125.868 14.2089 126.41 13.9199 126.79 13.3439ZM123.24 15.0569C122.697 14.7359 122.278 14.2759 121.98 13.6769C121.684 13.0769 121.534 12.3859 121.534 11.5979C121.534 10.6879 121.691 9.89786 122.003 9.22086C122.315 8.54486 122.756 8.02386 123.326 7.65786C123.893 7.29186 124.552 7.10886 125.299 7.10886C126.037 7.10886 126.677 7.27186 127.22 7.59886C127.764 7.92686 128.182 8.38686 128.481 8.97886C128.778 9.57186 128.927 10.2689 128.927 11.0659C128.927 11.9749 128.769 12.7659 128.458 13.4359C128.145 14.1059 127.704 14.6249 127.135 14.9899C126.568 15.3559 125.905 15.5389 125.146 15.5389C124.418 15.5389 123.783 15.3779 123.24 15.0569ZM135.343 7.27486C135.462 7.38586 135.521 7.54686 135.521 7.75686C135.521 8.26686 135.264 8.54386 134.753 8.58786L134.337 8.63786C133.631 8.71586 133.106 8.93786 132.762 9.30286C132.419 9.66886 132.222 10.2079 132.17 10.9169L131.878 14.7069C131.858 14.9839 131.771 15.1869 131.618 15.3139C131.463 15.4419 131.274 15.5059 131.049 15.5059C130.823 15.5059 130.642 15.4389 130.502 15.3059C130.365 15.1729 130.306 14.9739 130.327 14.7069L130.834 7.90686C130.844 7.66286 130.931 7.47486 131.096 7.34086C131.258 7.20886 131.448 7.14286 131.663 7.14286C131.868 7.14286 132.032 7.20586 132.156 7.33286C132.278 7.46086 132.335 7.64586 132.323 7.88986L132.278 8.57286C132.789 7.71886 133.599 7.24786 134.707 7.15886L134.875 7.14286C135.069 7.12086 135.227 7.16486 135.343 7.27486ZM138.88 12.4129C138.869 12.4789 138.865 12.5789 138.865 12.7129C138.865 13.2109 138.969 13.5899 139.18 13.8509C139.389 14.1119 139.684 14.2409 140.063 14.2409C140.187 14.2409 140.309 14.2329 140.431 14.2179C140.555 14.1999 140.653 14.1929 140.724 14.1929C140.846 14.1929 140.945 14.2449 141.016 14.3499C141.087 14.4559 141.124 14.6019 141.124 14.7899C141.124 15.0679 141.025 15.2619 140.824 15.3729C140.624 15.4829 140.273 15.5389 139.771 15.5389C138.992 15.5389 138.387 15.3059 137.957 14.8409C137.527 14.3739 137.312 13.7209 137.312 12.8779C137.312 12.7009 137.317 12.5629 137.328 12.4619L137.605 8.60586H136.697C136.492 8.60586 136.334 8.54986 136.221 8.43886C136.108 8.32886 136.052 8.17286 136.052 7.97286C136.052 7.76286 136.114 7.59986 136.237 7.48286C136.36 7.36686 136.538 7.30786 136.773 7.30786H137.696L137.819 5.57886C137.84 5.34686 137.927 5.15886 138.081 5.01286C138.235 4.86986 138.423 4.79786 138.65 4.79786C138.885 4.79786 139.068 4.86986 139.202 5.01286C139.336 5.15886 139.391 5.35286 139.372 5.59586L139.248 7.30786H140.77C140.964 7.30786 141.118 7.36386 141.233 7.47386C141.344 7.58486 141.399 7.73386 141.399 7.92386C141.399 8.37886 141.164 8.60586 140.693 8.60586H139.156L138.88 12.4129ZM152.565 7.82386C153 8.30086 153.218 9.00386 153.218 9.93586C153.218 10.1579 153.213 10.3239 153.202 10.4349L152.895 14.7069C152.874 14.9619 152.79 15.1589 152.642 15.2979C152.494 15.4359 152.302 15.5059 152.065 15.5059C151.83 15.5059 151.645 15.4359 151.512 15.2979C151.379 15.1589 151.323 14.9619 151.343 14.7079L151.652 10.5179C151.66 10.4399 151.666 10.3239 151.666 10.1679C151.666 9.03786 151.164 8.47186 150.161 8.47186C149.524 8.47186 149.02 8.67686 148.647 9.08686C148.272 9.49686 148.06 10.0689 148.008 10.7999L147.716 14.7069C147.696 14.9619 147.611 15.1589 147.464 15.2979C147.314 15.4359 147.121 15.5059 146.886 15.5059C146.651 15.5059 146.468 15.4359 146.341 15.2979C146.213 15.1589 146.154 14.9619 146.165 14.7079L146.672 7.90786C146.682 7.67486 146.769 7.48786 146.933 7.34986C147.097 7.21086 147.291 7.14186 147.516 7.14186C147.731 7.14186 147.901 7.20886 148.024 7.34186C148.147 7.47486 148.203 7.65786 148.193 7.88986L148.147 8.47186C148.403 8.03986 148.748 7.70486 149.185 7.46686C149.62 7.22786 150.11 7.10886 150.652 7.10886C151.492 7.10886 152.13 7.34686 152.565 7.82386ZM159.997 13.3439C160.377 12.7679 160.567 11.9929 160.567 11.0159C160.567 10.1849 160.389 9.54986 160.036 9.11186C159.685 8.67486 159.178 8.45586 158.523 8.45586C157.805 8.45586 157.257 8.74386 156.877 9.31986C156.5 9.89686 156.309 10.6729 156.309 11.6479C156.309 12.4909 156.486 13.1279 156.839 13.5609C157.194 13.9919 157.703 14.2089 158.368 14.2089C159.076 14.2089 159.618 13.9199 159.997 13.3439ZM156.448 15.0569C155.906 14.7359 155.484 14.2759 155.187 13.6769C154.891 13.0769 154.743 12.3859 154.743 11.5979C154.743 10.6879 154.899 9.89786 155.21 9.22086C155.524 8.54486 155.963 8.02386 156.533 7.65786C157.102 7.29186 157.76 7.10886 158.508 7.10886C159.245 7.10886 159.886 7.27186 160.427 7.59886C160.971 7.92686 161.391 8.38686 161.688 8.97886C161.986 9.57186 162.134 10.2689 162.134 11.0659C162.134 11.9749 161.979 12.7659 161.666 13.4359C161.352 14.1059 160.912 14.6249 160.343 14.9899C159.775 15.3559 159.112 15.5389 158.354 15.5389C157.626 15.5389 156.991 15.3779 156.448 15.0569ZM169.926 7.82386C170.361 8.30086 170.579 9.00386 170.579 9.93586C170.579 10.1579 170.574 10.3239 170.564 10.4349L170.256 14.7069C170.235 14.9619 170.15 15.1589 170.003 15.2979C169.855 15.4359 169.662 15.5059 169.426 15.5059C169.191 15.5059 169.007 15.4359 168.873 15.2979C168.739 15.1589 168.684 14.9619 168.703 14.7079L169.011 10.5179C169.021 10.4399 169.026 10.3239 169.026 10.1679C169.026 9.03786 168.525 8.47186 167.521 8.47186C166.886 8.47186 166.382 8.67686 166.007 9.08686C165.632 9.49686 165.421 10.0689 165.369 10.7999L165.077 14.7069C165.057 14.9619 164.972 15.1589 164.824 15.2979C164.676 15.4359 164.483 15.5059 164.247 15.5059C164.011 15.5059 163.83 15.4359 163.702 15.2979C163.573 15.1589 163.514 14.9619 163.525 14.7079L164.031 7.90786C164.042 7.67486 164.13 7.48786 164.293 7.34986C164.458 7.21086 164.652 7.14186 164.877 7.14186C165.092 7.14186 165.261 7.20886 165.385 7.34186C165.508 7.47486 165.564 7.65786 165.554 7.88986L165.507 8.47186C165.763 8.03986 166.11 7.70486 166.544 7.46686C166.979 7.22786 167.469 7.10886 168.012 7.10886C168.852 7.10886 169.491 7.34686 169.926 7.82386ZM177.753 13.3779C178.137 12.8229 178.328 12.0579 178.328 11.0829C178.328 10.2409 178.149 9.59186 177.791 9.13686C177.432 8.68286 176.921 8.45586 176.254 8.45586C175.579 8.45586 175.045 8.73586 174.656 9.29486C174.267 9.85486 174.072 10.6179 174.072 11.5809C174.072 12.4359 174.252 13.0869 174.61 13.5349C174.968 13.9849 175.48 14.2089 176.146 14.2089C176.833 14.2089 177.369 13.9319 177.753 13.3779ZM178.383 7.59086C178.869 7.91286 179.246 8.36986 179.511 8.96286C179.779 9.55586 179.912 10.2459 179.912 11.0329C179.912 11.9199 179.763 12.7039 179.466 13.3859C179.17 14.0679 178.751 14.5979 178.213 14.9739C177.675 15.3499 177.057 15.5379 176.362 15.5379C175.779 15.5379 175.273 15.4059 174.848 15.1399C174.424 14.8739 174.097 14.4969 173.872 14.0089L173.826 14.7069C173.816 14.9619 173.734 15.1589 173.58 15.2979C173.426 15.4359 173.236 15.5059 173.012 15.5059C172.785 15.5059 172.607 15.4359 172.474 15.2979C172.34 15.1589 172.279 14.9619 172.289 14.7079L173.057 4.38186C173.068 4.14886 173.154 3.96186 173.319 3.81686C173.483 3.67286 173.678 3.59986 173.903 3.59986C174.128 3.59986 174.305 3.66686 174.432 3.79986C174.561 3.93286 174.62 4.11586 174.61 4.34886L174.302 8.42186C174.558 8.01186 174.899 7.69186 175.325 7.45786C175.75 7.22486 176.213 7.10886 176.715 7.10886C177.34 7.10886 177.895 7.26986 178.383 7.59086ZM185.426 13.6769C185.795 13.2669 186.004 12.7399 186.055 12.0969L186.087 11.6319H185.656C184.897 11.6319 184.303 11.6759 183.873 11.7649C183.442 11.8529 183.136 11.9979 182.951 12.1959C182.766 12.3959 182.674 12.6739 182.674 13.0279C182.674 13.4159 182.799 13.7239 183.051 13.9509C183.303 14.1779 183.643 14.2909 184.073 14.2909C184.605 14.2909 185.056 14.0869 185.426 13.6769ZM187.685 9.96886C187.685 10.1789 187.68 10.3409 187.669 10.4509L187.363 14.7409C187.351 14.9849 187.277 15.1729 187.139 15.3069C187 15.4389 186.819 15.5069 186.593 15.5069C186.368 15.5069 186.189 15.4309 186.055 15.2809C185.923 15.1309 185.866 14.9399 185.887 14.7069L185.917 14.1419C185.702 14.5969 185.406 14.9419 185.026 15.1809C184.647 15.4189 184.205 15.5389 183.705 15.5389C182.956 15.5389 182.339 15.3199 181.853 14.8819C181.366 14.4439 181.123 13.8819 181.123 13.1949C181.123 12.5739 181.27 12.0829 181.569 11.7229C181.865 11.3629 182.339 11.0999 182.99 10.9329C183.64 10.7669 184.514 10.6829 185.61 10.6829H186.164L186.194 10.2679C186.235 9.63586 186.131 9.17386 185.887 8.87986C185.642 8.58586 185.241 8.43886 184.688 8.43886C184.011 8.43886 183.264 8.68386 182.444 9.17086C182.352 9.22586 182.25 9.25386 182.137 9.25386C181.984 9.25386 181.856 9.19286 181.752 9.07086C181.651 8.94886 181.599 8.80486 181.599 8.63886C181.599 8.37286 181.727 8.15086 181.984 7.97386C182.352 7.70786 182.789 7.49686 183.297 7.34086C183.804 7.18586 184.319 7.10886 184.842 7.10886C186.736 7.10886 187.685 8.06286 187.685 9.96886ZM195.804 7.82386C196.239 8.30086 196.457 9.00386 196.457 9.93586C196.457 10.1579 196.452 10.3239 196.441 10.4349L196.134 14.7069C196.113 14.9619 196.029 15.1589 195.88 15.2979C195.732 15.4359 195.54 15.5059 195.304 15.5059C195.069 15.5059 194.884 15.4359 194.751 15.2979C194.617 15.1589 194.561 14.9619 194.581 14.7079L194.889 10.5179C194.898 10.4399 194.904 10.3239 194.904 10.1679C194.904 9.03786 194.403 8.47186 193.398 8.47186C192.764 8.47186 192.258 8.67686 191.884 9.08686C191.511 9.49686 191.297 10.0689 191.247 10.7999L190.955 14.7069C190.935 14.9619 190.851 15.1589 190.702 15.2979C190.552 15.4359 190.36 15.5059 190.125 15.5059C189.89 15.5059 189.707 15.4359 189.58 15.2979C189.452 15.1589 189.392 14.9619 189.403 14.7079L189.91 7.90786C189.919 7.67486 190.007 7.48786 190.171 7.34986C190.335 7.21086 190.53 7.14186 190.754 7.14186C190.97 7.14186 191.139 7.20886 191.262 7.34186C191.385 7.47486 191.441 7.65786 191.432 7.88986L191.386 8.47186C191.641 8.03986 191.987 7.70486 192.422 7.46686C192.858 7.22786 193.347 7.10886 193.891 7.10886C194.731 7.10886 195.368 7.34686 195.804 7.82386ZM204.437 14.2419C204.56 14.3739 204.622 14.5349 204.622 14.7239C204.622 14.9239 204.542 15.1059 204.383 15.2729C204.223 15.4399 204.049 15.5229 203.853 15.5229C203.668 15.5229 203.505 15.4399 203.361 15.2729L199.965 11.6309L199.733 14.7239C199.713 14.9799 199.626 15.1739 199.473 15.3059C199.32 15.4399 199.136 15.5059 198.92 15.5059C198.695 15.5059 198.51 15.4339 198.367 15.2889C198.223 15.1449 198.162 14.9459 198.182 14.6909L198.936 4.39886C198.945 4.14386 199.032 3.94986 199.195 3.81586C199.36 3.68386 199.549 3.61586 199.765 3.61586C199.991 3.61586 200.17 3.68586 200.303 3.82486C200.436 3.96386 200.498 4.16486 200.486 4.43186L200.012 10.9319L203.638 7.42386C203.781 7.26986 203.945 7.19186 204.13 7.19186C204.315 7.19186 204.475 7.26686 204.615 7.41686C204.752 7.56686 204.821 7.73486 204.821 7.92386C204.821 8.12286 204.744 8.29986 204.591 8.45586L201.67 11.2329L204.437 14.2419ZM216.247 3.74486C216.332 3.83686 216.367 3.96286 216.352 4.12486L216.065 8.02286C216.044 8.37486 215.889 8.55186 215.597 8.55186C215.463 8.55186 215.36 8.50786 215.29 8.41986C215.22 8.33086 215.189 8.19986 215.205 8.02286L215.384 5.53886L214.334 7.45886C214.262 7.58186 214.191 7.67086 214.121 7.72386C214.05 7.77686 213.964 7.80386 213.865 7.80386C213.773 7.80386 213.696 7.77686 213.637 7.72386C213.576 7.66986 213.521 7.58186 213.472 7.45886L212.685 5.60786L212.505 8.02286C212.497 8.19986 212.451 8.33086 212.366 8.41986C212.281 8.50786 212.168 8.55186 212.027 8.55186C211.892 8.55186 211.789 8.50786 211.718 8.41986C211.647 8.33086 211.616 8.19986 211.623 8.02286L211.91 4.12386C211.924 3.96386 211.979 3.83686 212.075 3.74386C212.17 3.65286 212.281 3.60686 212.409 3.60686C212.594 3.60686 212.734 3.72586 212.834 3.96286L213.94 6.65386L215.438 3.96386C215.573 3.72586 215.737 3.60686 215.928 3.60686C216.055 3.60686 216.161 3.65286 216.247 3.74486ZM211.356 4.06686C211.356 4.37386 211.19 4.52686 210.857 4.52686H209.816L209.56 8.03386C209.553 8.19486 209.5 8.32186 209.396 8.41386C209.294 8.50586 209.17 8.55186 209.029 8.55186C208.887 8.55186 208.773 8.50586 208.684 8.41386C208.595 8.32186 208.554 8.19486 208.562 8.03386L208.826 4.52686H207.797C207.505 4.52686 207.361 4.38886 207.361 4.11286C207.361 3.80586 207.523 3.65286 207.849 3.65286H210.92C211.212 3.65286 211.356 3.79086 211.356 4.06686Z" fill="white"/>
</svg>
